<svg width="447" height="400" viewBox="0 0 447 400" fill="none" xmlns="http://www.w3.org/2000/svg">
<path d="M437.953 308.216L412.329 282.489C408.837 278.984 407.807 273.889 409.44 269.223C417.052 247.632 421.146 224.024 421.146 199.18C421.172 87.1682 334.953 0 224.014 0C196.203 0 169.951 5.44801 146.16 15.2847C126.691 23.4063 108.879 34.4788 93.3285 47.9728C88.9321 51.7561 84.7619 55.7412 80.7172 59.9533C75.8435 65.0482 67.7794 65.1744 62.7549 60.1551L51.5254 48.8808C39.7431 37.0515 20.7006 37.0515 8.84297 48.9564C2.93928 54.8837 0 62.5765 0 70.3449C0 78.1134 2.93928 85.8314 8.91834 91.7334L34.4172 117.384C37.8338 120.815 38.8638 126.061 37.2309 130.651C29.7697 151.914 25.725 174.967 25.725 199.18C25.725 312.832 111.919 400 224.039 400C251.447 400 277.348 394.703 300.862 384.867C320.332 376.896 338.068 365.799 353.618 352.128C357.99 348.345 362.185 344.36 366.154 340.148C371.078 335.053 379.092 334.851 384.116 339.87L395.296 351.094C407.153 362.999 426.196 362.999 437.978 351.094C443.882 345.167 446.897 337.474 446.897 329.706C446.897 321.937 443.882 314.219 437.978 308.241L437.953 308.216ZM256.145 339.996C245.87 342.619 235.117 343.981 224.014 343.981C146.989 343.981 85.9929 280.472 85.9929 199.155C85.9929 189.722 86.8219 180.566 88.5302 171.713C89.309 167.4 90.2636 163.138 91.3941 158.976C94.9112 145.961 91.2936 132.064 81.7975 122.53L66.0459 106.69C60.3432 100.965 59.4137 91.5316 64.7145 85.4278C67.7291 81.9472 71.8994 80.2573 76.1199 80.2573C79.9636 80.2573 83.8072 81.6949 86.7465 84.6712L114.029 112.063C114.029 112.063 114.155 111.861 114.23 111.785L296.868 295.151C305.434 303.752 303.625 318.103 293.275 324.434C281.87 331.446 269.359 336.717 256.12 339.971L256.145 339.996ZM371.53 308.267C365.401 313.286 356.281 312.176 350.679 306.552L151.109 106.085C150.758 105.732 150.431 105.328 150.079 104.925C141.488 96.2986 143.321 81.8967 153.722 75.5911C165.127 68.6802 177.613 63.4088 190.852 60.1299C201.479 57.3807 212.583 55.9934 224.014 55.9934C300.485 55.9934 360.853 118.873 360.853 199.155C360.853 209.118 359.974 218.753 358.191 228.11C357.336 232.726 356.281 237.266 355.025 241.705C351.408 254.543 355.427 268.34 364.823 277.773L372.711 285.693C378.966 291.973 378.59 302.465 371.53 308.216V308.267Z" fill="white"/>
</svg>
