<svg xmlns="http://www.w3.org/2000/svg" viewBox="0 0 744 217" fill="#b6bbff">
  <!-- Stylized O with diagonal slash and swoosh tail -->
  <g>
    <!-- Outer O circle -->
    <path d="M95 108.5c0-49.7 40.3-90 90-90s90 40.3 90 90-40.3 90-90 90-90-40.3-90-90zm90-67c-37 0-67 30-67 67s30 67 67 67 67-30 67-67-30-67-67-67z"/>
    <!-- Diagonal slash through the O (bottom-left to top-right) -->
    <path d="M130 165c-4-4-4-10 0-14l80-94c4-4 10-4 14 0s4 10 0 14l-80 94c-4 4-10 4-14 0z" fill-rule="evenodd"/>
    <!-- Swoosh tail curving from top -->
    <path d="M260 45c0 0-15-30-55-35c-8-1-15 5-14 13c1 8 8 13 16 12c20-2 35 12 40 25c2 5 6 8 11 8c8 0 14-7 12-15c-1-3-4-6-10-8z"/>
  </g>
  <!-- r -->
  <path d="M310 75v125h25V135c0-25 15-38 38-38h8V72h-8c-18 0-32 8-38 22V75h-25z"/>
  <!-- v -->
  <path d="M410 75l42 125h28l42-125h-28l-28 90-28-90h-28z"/>
  <!-- e -->
  <path d="M530 137c0-36 28-65 65-65 35 0 62 27 62 62v8H555c2 22 20 38 42 38 18 0 32-10 38-25h27c-8 28-35 47-65 47-40 0-67-29-67-65zm25-10h75c-2-22-17-35-38-35-20 0-35 13-37 35z"/>
  <!-- x -->
  <path d="M680 75l35 60-35 65h30l20-38 20 38h30l-35-65 35-60h-30l-20 38-20-38h-30z"/>
</svg>
