<svg width="737" height="180" viewBox="0 0 737 180" fill="none" xmlns="http://www.w3.org/2000/svg">
<path d="M222.912 176.625C220.905 176.625 219.273 174.993 219.273 172.987V100.894C219.273 70.0328 236.908 46.9463 270.105 46.9463C277.233 46.9463 284.566 48.1703 290.664 50.6184C292.035 51.1737 292.93 52.5111 292.93 53.9958V71.2115C292.93 73.7615 290.358 75.5636 287.989 74.6116C283.025 72.5942 277.664 71.5855 272.439 71.5855C255.326 71.5855 244.944 83.2591 244.944 101.925V172.976C244.944 174.982 243.312 176.614 241.306 176.614H222.912V176.625Z" fill="white"/>
<path d="M311.645 49.5391H331.342C332.872 49.5391 334.244 50.5024 334.765 51.9418L371.248 153.026C371.508 154.318 372.54 155.621 374.104 155.621C375.917 155.621 376.96 154.318 377.209 153.026L413.692 51.9418C414.213 50.5024 415.585 49.5391 417.115 49.5391H436.541C439.079 49.5391 440.836 52.0778 439.952 54.4578L400.545 160.03C395.615 173.256 386.537 180 374.093 180C361.648 180 352.309 173.256 347.379 160.03L308.222 54.4465C307.338 52.0665 309.094 49.5391 311.633 49.5391H311.645Z" fill="white"/>
<path d="M452.938 112.303C452.938 75.7293 479.129 45.9106 517.256 45.9106C555.382 45.9106 579.5 73.6666 579.5 109.197V115.93C579.5 117.936 577.868 119.568 575.862 119.568H482.189C479.855 119.568 478.109 121.744 478.631 124.022C483.028 143.413 498.872 156.662 520.112 156.662C534.562 156.662 547.675 150.848 555.495 138.801C556.526 137.214 558.566 136.613 560.255 137.486L573.583 144.32C575.431 145.272 576.134 147.584 575.079 149.386C563.599 169.016 543.969 179.488 520.384 179.488C481.736 179.488 452.949 151.483 452.949 112.314L452.938 112.303ZM549.806 102.964C552.027 102.964 553.75 100.981 553.41 98.7818C550.678 80.8634 536.534 68.9972 517.006 68.9972C497.206 68.9972 483.776 81.7134 479.73 98.4871C479.175 100.777 480.931 102.975 483.277 102.975H549.806V102.964Z" fill="white"/>
<path d="M610.951 176.623C608.038 176.623 606.304 173.381 607.925 170.967L636.316 128.387C640.203 122.686 642.016 117.756 642.016 113.086C642.016 108.678 640.464 104.269 636.826 98.8175L607.891 55.1945C606.282 52.7691 608.027 49.5391 610.928 49.5391H631.25C632.462 49.5391 633.596 50.1397 634.276 51.1484L659.13 88.1752C661.216 91.3146 662.972 94.7827 664.117 98.3188C664.604 99.8375 665.987 100.88 667.585 100.88H675.927C677.479 100.88 678.862 99.8942 679.361 98.4208C680.585 94.8507 682.171 91.3486 684.291 88.1752L708.885 51.1598C709.565 50.1397 710.698 49.5391 711.922 49.5391H732.492C735.394 49.5391 737.128 52.7691 735.53 55.1945L706.595 98.8175C702.968 104.269 701.404 108.678 701.404 113.086C701.404 117.756 703.218 122.686 707.105 128.387L735.496 170.967C737.105 173.381 735.371 176.623 732.47 176.623H712.16C710.947 176.623 709.825 176.022 709.145 175.024L684.291 138.247C681.922 134.586 680.097 130.756 678.794 126.743C678.307 125.247 676.913 124.239 675.349 124.239H668.072C666.497 124.239 665.103 125.247 664.627 126.743C663.335 130.756 661.499 134.586 659.141 138.247L634.287 175.024C633.607 176.022 632.485 176.623 631.272 176.623H610.962H610.951Z" fill="white"/>
<path d="M197.578 138.496L186.018 126.936C184.443 125.361 183.978 123.071 184.715 120.975C188.149 111.273 189.996 100.665 189.996 89.5013C190.007 39.1689 151.111 0 101.062 0C88.5153 0 76.6717 2.44805 65.9388 6.86815C57.1552 10.5176 49.1197 15.493 42.1043 21.5565C40.1209 23.2565 38.2395 25.0472 36.4148 26.9399C34.2161 29.2293 30.578 29.286 28.3113 27.0306L23.2452 21.9645C17.9297 16.649 9.33887 16.649 3.98942 21.9985C1.32603 24.6619 0 28.1186 0 31.6094C0 35.1001 1.32603 38.5682 4.02342 41.2202L15.527 52.7465C17.0684 54.2878 17.533 56.6452 16.7964 58.7079C13.4303 68.2622 11.6056 78.621 11.6056 89.5013C11.6056 140.57 50.4911 179.739 101.073 179.739C113.438 179.739 125.123 177.359 135.731 172.939C144.514 169.358 152.516 164.371 159.531 158.228C161.504 156.528 163.396 154.737 165.187 152.845C167.408 150.555 171.024 150.465 173.29 152.72L178.334 157.763C183.683 163.113 192.274 163.113 197.59 157.763C200.253 155.1 201.613 151.643 201.613 148.153C201.613 144.662 200.253 141.194 197.59 138.508L197.578 138.496ZM115.557 152.777C110.922 153.955 106.071 154.567 101.062 154.567C66.3128 154.567 38.7948 126.029 38.7948 89.4899C38.7948 85.2512 39.1689 81.1371 39.9395 77.159C40.2909 75.221 40.7216 73.3056 41.2316 71.4356C42.8183 65.5874 41.1862 59.3426 36.9021 55.0585L29.796 47.941C27.2233 45.3683 26.8039 41.1296 29.1953 38.3868C30.5553 36.8228 32.4367 36.0634 34.3407 36.0634C36.0748 36.0634 37.8088 36.7095 39.1348 38.0468L51.4431 50.3551C51.4431 50.3551 51.4998 50.2644 51.5338 50.2304L133.929 132.626C137.794 136.49 136.978 142.939 132.308 145.784C127.163 148.935 121.519 151.303 115.546 152.765L115.557 152.777ZM167.612 138.519C164.847 140.774 160.733 140.276 158.205 137.748L68.1715 47.669C68.0128 47.5104 67.8655 47.329 67.7068 47.1477C63.8307 43.2716 64.6581 36.8001 69.3502 33.9667C74.4956 30.8613 80.1284 28.4926 86.1012 27.0193C90.8953 25.7839 95.9048 25.1605 101.062 25.1605C135.561 25.1605 162.796 53.4152 162.796 89.4899C162.796 93.9667 162.399 98.2961 161.594 102.501C161.209 104.575 160.733 106.615 160.166 108.61C158.534 114.378 160.347 120.578 164.586 124.817L168.145 128.375C170.967 131.198 170.797 135.912 167.612 138.496V138.519Z" fill="white"/>
</svg>
