<svg xmlns="http://www.w3.org/2000/svg" viewBox="0 0 744 217" fill="none">
  <g fill="#b6bbff">
    <!-- O with vortex design -->
    <path d="M108.5 108.5c0 49.7-40.3 90-90 90s-90-40.3-90-90 40.3-90 90-90 90 40.3 90 90zm-90-70c-38.7 0-70 31.3-70 70s31.3 70 70 70 70-31.3 70-70-31.3-70-70-70z"/>
    <path d="M18.5 108.5c0-49.7 40.3-90 90-90" stroke="#b6bbff" stroke-width="16" stroke-linecap="round" fill="none"/>
    <path d="M85 35l35-25" stroke="#b6bbff" stroke-width="14" stroke-linecap="round" fill="none"/>
    <!-- r -->
    <path d="M150 85v115h25V130c0-25 15-40 40-40h10V65h-10c-20 0-35 10-40 25V85h-25z"/>
    <!-- v -->
    <path d="M255 85l45 115h25l45-115h-27l-30.5 85-30.5-85h-27z"/>
    <!-- e -->
    <path d="M420 142.5c0 30-25 57.5-60 57.5-35 0-62.5-27.5-62.5-57.5S325 85 360 85c32.5 0 57.5 22.5 60 52.5H322.5c2.5-17.5 17.5-30 37.5-30 22.5 0 37.5 15 37.5 35 0 2.5 0 5-.5 7.5h-72c2.5 20 17.5 32.5 35 32.5 15 0 27.5-7.5 32.5-20h27.5z"/>
    <!-- x -->
    <path d="M440 85l40 57.5L440 200h30l25-37.5L520 200h30l-40-57.5L550 85h-30l-25 37.5L470 85h-30z"/>
  </g>
</svg>
